<?xml version="1.0" encoding="UTF-8"?>
<svg xmlns="http://www.w3.org/2000/svg" xmlns:xlink="http://www.w3.org/1999/xlink" width="px" height="px" viewBox="0 0 893 741" version="1.1">
<defs>
<filter id="alpha" filterUnits="objectBoundingBox" x="0%" y="0%" width="100%" height="100%">
  <feColorMatrix type="matrix" in="SourceGraphic" values="0 0 0 0 1 0 0 0 0 1 0 0 0 0 1 0 0 0 1 0"/>
</filter>
<mask id="mask0">
  <g filter="url(#alpha)">
<rect x="0" y="0" width="893" height="741" style="fill:rgb(0%,0%,0%);fill-opacity:0.341176;stroke:none;"/>
  </g>
</mask>
<clipPath id="clip1">
  <rect x="0" y="0" width="893" height="741"/>
</clipPath>
<g id="surface5" clip-path="url(#clip1)">
<path style=" stroke:none;fill-rule:nonzero;fill:rgb(100%,95.686275%,74.117647%);fill-opacity:1;" d="M 391.644531 151.5 L 321.941406 69.757812 C 273.207031 12.605469 203.878906 -13.253906 131.488281 6.648438 C 60.289062 26.222656 -9.972656 122.070312 1.171875 195.125 L 34.898438 416.261719 L 55.53125 551.539062 C 74.890625 678.472656 197.0625 762.878906 322.515625 736.003906 L 327.425781 734.949219 L 802.875 628.476562 C 836.441406 620.960938 862.527344 594.535156 869.632812 560.855469 L 890.480469 461.96875 C 894.964844 440.707031 893.441406 418.617188 886.082031 398.175781 L 880.003906 381.277344 C 866.914062 344.894531 831.601562 321.347656 793.015625 323.273438 L 655.074219 330.144531 C 608.410156 332.46875 564.84375 306.757812 544.289062 264.761719 L 540.5 257.019531 C 527.347656 230.144531 504.410156 209.339844 476.402344 198.875 L 439.683594 185.160156 C 421.074219 178.207031 404.539062 166.621094 391.644531 151.5 Z M 391.644531 151.5 "/>
</g>
</defs>
<g id="surface1">
<use xlink:href="#surface5" mask="url(#mask0)"/>
</g>
</svg>
